<svg width="39" height="35" viewBox="0 0 39 35" fill="none" xmlns="http://www.w3.org/2000/svg">
<path d="M32.5305 22.2731C29.9416 22.2731 27.8547 20.2167 27.8547 17.7124C27.8547 15.208 29.9416 13.1516 32.5305 13.1516C35.1194 13.1516 37.2063 15.208 37.2063 17.7124C37.2063 20.2167 35.1194 22.2731 32.5305 22.2731Z" fill="white" stroke="black"/>
<path d="M30.5371 17.2831L30.167 17.3827V17.7659V22.2735H4.31779V18.1556C4.31779 13.2768 5.73238 9.17391 8.11887 6.30033C10.4999 3.43331 13.8665 1.76538 17.8441 1.76538C27.0135 1.76538 33.3242 8.90319 33.3242 15.1824L33.3242 15.1821C33.3242 15.1821 33.3206 15.5175 33.1021 15.9084C32.8893 16.2893 32.4485 16.7682 31.4866 17.0276L30.5371 17.2831Z" fill="#39543F" stroke="#39543F"/>
<path d="M4.06371 32.3947C2.90198 32.3947 1.97583 31.4731 1.97583 30.3643V25.3036C1.97583 24.1947 2.90198 23.2732 4.06371 23.2732H32.5304C33.6921 23.2732 34.6183 24.1947 34.6183 25.3036V30.3643C34.6183 31.4731 33.6921 32.3947 32.5304 32.3947H4.06371Z" fill="white" stroke="black"/>
</svg>
